PathFileType	4	(X/Y/Z)	Walk1_0-155.trc
DataRate	CameraRate	NumFrames	NumMarkers	Units	OrigDataRate	OrigDataStartFrame	OrigNumFrames
30	30	5	22	m	30	38	155
Frame#	Time	Hip			RHip			RKnee			RAnkle			RBigToe			RSmallToe			RHeel			LHip			LKnee			LAnkle			LBigToe			LSmallToe			LHeel			Neck			Head			Nose			RShoulder			RElbow			RWrist			LShoulder			LElbow			LWrist		
		X1	Y1	Z1	X2	Y2	Z2	X3	Y3	Z3	X4	Y4	Z4	X5	Y5	Z5	X6	Y6	Z6	X7	Y7	Z7	X8	Y8	Z8	X9	Y9	Z9	X10	Y10	Z10	X11	Y11	Z11	X12	Y12	Z12	X13	Y13	Z13	X14	Y14	Z14	X15	Y15	Z15	X16	Y16	Z16	X17	Y17	Z17	X18	Y18	Z18	X19	Y19	Z19	X20	Y20	Z20	X21	Y21	Z21	X22	Y22	Z22
39	1.3	-2.120449575480126	0.845734259772751	0.37211670274804487	-2.081449526848043	0.8316987883322857	0.4653685293169579	-1.992041291309626	0.48735243875900747	0.44043454006296046	-2.0270574051101136	0.08507733011963925	0.4427642430924544	-1.8185569758271107	0.011266091271961248	0.4365218736891361	-1.834197012570185	0.008118671843134098	0.5058224676265681	-2.0599812139346234	0.01085454292649444	0.4310318470707895	-2.153213494118735	0.8206454400356312	0.2751982257519707	-2.0985254811377048	0.4544524792458089	0.27318226978067967	-2.424610218101628	0.16501769431938523	0.2897317128318074	-2.34973657054554	-0.028133377890990626	0.2919616971315593	-2.391002221698357	-0.01620770778927153	0.2387962661133589	-2.496622223731907	0.14881214037584822	0.2827956068885166	-2.129022125425292	1.52269776649627	0.3382584155706007	-2.0737301021167442	1.7666749234975945	0.3581966460590955	-1.9805226027387768	1.649045555588091	0.34398282947663383	-2.1472586308909944	1.3979794317672467	0.5355832236665622	-2.1476902605104664	1.0941894801111673	0.605830264029829	-2.130960948032562	0.8431830752440315	0.6345932169249804	-2.194607924853011	1.417493851704056	0.14075224140930653	-2.160159221956524	1.0997978710272234	0.10944468335113021	-2.0859929093094483	0.8418525093890639	0.12080168071720448
40	1.3333333333333333	-2.091060923936507	0.8499517211645474	0.37537041706882357	-2.0571078209280627	0.8331625874470835	0.4693652498332659	-1.9878407996770762	0.48142752302862185	0.44446123725765774	-2.0287875275315583	0.08468763691795204	0.4445128892237363	-1.823462092263959	0.009516944332313343	0.4348137485675985	-1.8421863744254798	0.005312213890617734	0.5046782573912156	-2.056701195829838	0.013986199166414926	0.434033622356031	-2.1184072404570378	0.8254536734445239	0.27892639230840954	-2.031760132463464	0.4658879345877143	0.27589779178203433	-2.3660857876366923	0.18431190033199293	0.29564195618471456	-2.3009620783091944	-0.023821518647715725	0.29511590863972187	-2.3415490361784492	-0.00839637797358947	0.24271057739261528	-2.4356207287388454	0.17617997722621392	0.2883451788120501	-2.1032774123630196	1.529088106760568	0.34414682574128347	-2.0468695217235644	1.7729284881125216	0.36294180877858045	-1.9547927486933738	1.6538487718626662	0.34921137789093903	-2.1209075533004027	1.4060351864258807	0.5392324208887557	-2.1051794230136323	1.0982019386183999	0.6124539228733828	-2.0744173678038647	0.8485488227558713	0.6397622532273004	-2.169948293375758	1.4233520042159855	0.145542867690327	-2.1394876214734215	1.1065140921305874	0.11444392116918745	-2.0660604031353422	0.8483112263268796	0.12441389744014704
41	1.3666666666666667	-2.063047502593755	0.8534052706521873	0.3782283893197788	-2.035746437279902	0.8344485623560153	0.47319475165336944	-1.9874773708938547	0.4777270900254781	0.44633228838375844	-2.0318932259573446	0.0846372874680947	0.446728600961972	-1.8286964205563343	0.0075767086038863694	0.43441536202639947	-1.8532306687252684	0.0020746503298748843	0.5015581126181254	-2.053668916653983	0.0168406301755996	0.4375770381659997	-2.084228557759668	0.8309517356058995	0.2815599319147742	-1.9647392588333497	0.48064151641025554	0.27804936048294443	-2.298157321908836	0.1980894431594264	0.3016447884066708	-2.2335052272267224	-0.01803433750859214	0.29951766173175876	-2.2731697366880126	0.0004483328833802425	0.2471453136693914	-2.365098250716866	0.19162911958615905	0.2954423416815937	-2.0769097783782513	1.5354568177844292	0.3490422326098224	-2.019560801086469	1.779583888960056	0.36659161032616316	-1.9289745195497103	1.6574483615263398	0.35463865005515016	-2.095825334423768	1.4152952615357177	0.5408921219148181	-2.0626318123906864	1.1027212965377515	0.6184776429371539	-2.015515755628183	0.8544811728930309	0.6444994252602381	-2.144694710956589	1.428796818324653	0.14931436192610334	-2.1172500407742336	1.1119898594826387	0.12079784978006566	-2.045639322385718	0.8546745093308562	0.12718775071822794
42	1.4	-2.035913306431616	0.8562455013720915	0.3810928733063393	-2.016310375568709	0.8357244109735356	0.477075912732692	-1.9888717737137493	0.47578681449808713	0.4476464645444232	-2.033405084585617	0.08504892771920537	0.4486251661549293	-1.8347141961451776	0.004807664790567206	0.4348386120091511	-1.8657770128451645	-0.0017369904497082397	0.4969614820086008	-2.051469569114466	0.0185946465333397	0.4413507249561918	-2.050512683598325	0.8370471123130983	0.28367301932656647	-1.9000801922947248	0.49735834006166046	0.2799980861837819	-2.2212005621242983	0.2049468843482535	0.3069491685238814	-2.1468994318018066	-0.010456982521003773	0.3042304655807238	-2.185978464547289	0.009329265747227785	0.2514716042019241	-2.2867553916745567	0.1915840236189475	0.3037116758496544	-2.049732525937029	1.5413196666513702	0.3529652868534411	-1.991744810797387	1.7859891483426882	0.3692704102056423	-1.9027223644629114	1.6596148976384897	0.3595208967910737	-2.070646894563921	1.4240771829584575	0.542219889914431	-2.020648412161017	1.1076454548365804	0.6238129647605354	-1.9552924367377247	0.8613712315970048	0.6488136077031236	-2.1186587321031043	1.4332759297442865	0.15222343676806704	-2.094276507907667	1.1162891327609366	0.12704062158445836	-2.0246338648641156	0.8601542106573158	0.12915964945655492
43	1.4333333333333331	-2.0092016769426535	0.8586592214564426	0.38417509919089193	-1.9976798662333959	0.8371411466462613	0.4810264704944941	-1.9901141767411388	0.47475244299009234	0.4497089191864084	-2.0314436370074604	0.08557779861431326	0.4495607494725954	-1.8414400405850173	0.0008520988773286775	0.4356355251601082	-1.8775690516746424	-0.006013163426427289	0.4919213593148153	-2.0509014242421664	0.01825917465374502	0.44456836081189394	-2.0169520950837665	0.843518262262614	0.28576190048198435	-1.8403264859853508	0.5140038075385251	0.2819771472853349	-2.135465765330248	0.2044875926888162	0.31083552790600444	-2.0430057600483242	-0.0017414192561402736	0.3078993607168954	-2.0824181383154254	0.01692975712910198	0.254998765193029	-2.201261799475505	0.17633688104102366	0.3120143051843838	-2.0217204495900236	1.5462532505311202	0.3560712989679064	-1.9638573580998897	1.791312186510326	0.37105017608811564	-1.8757202783708615	1.6605682728272058	0.3632954359229809	-2.0445714958751053	1.4313409174581426	0.5437477335801111	-1.9794882760396761	1.1126928584938904	0.6283486154894734	-1.8947496827388202	0.8694193905701938	0.6523286067467814	-2.091682340611502	1.436488937302593	0.15448879274481703	-2.070745260604746	1.1194710697751946	0.1318960751130026	-2.0030479727094352	0.8639353487093628	0.13074147957219756
